<svg width="1000" height="650" viewBox="0 0 1000 650" xmlns="http://www.w3.org/2000/svg"><defs><linearGradient id="hearth-room" x2="0" y2="1"><stop stop-color="#292326"></stop><stop offset="1" stop-color="#534032"></stop></linearGradient><radialGradient id="ember-light"><stop stop-color="#EBC57C" stop-opacity=".42"></stop><stop offset="1" stop-color="#EBC57C" stop-opacity="0"></stop></radialGradient></defs><rect width="1000" height="650" fill="url(#hearth-room)"></rect><ellipse cx="500" cy="449" rx="330" ry="300" fill="url(#ember-light)"></ellipse><g stroke="#9D8158" stroke-width="1.6" fill="none" opacity=".65"><path d="M34 32h932v586H34zM45 43h910v565H45zM123 44v562m751-562v562"></path><path d="M65 169V86h63M935 169V86h-63M65 489v85h63m807-85v85h-63"></path></g><g stroke="#B29B70" stroke-width="2" fill="#7A6650"><path d="M281 529V281c0-259 438-259 438 0v248z"></path><path d="M313 525V284c0-218 374-218 374 0v241z" fill="#514438"></path><path d="M339 519V288c0-183 322-183 322 0v231z" fill="#2E2824"></path><path d="M262 276h69v15h-69zm406 0h69v15h-69zM270 290h54v222h-54zm406 0h54v222h-54zM257 512h80v20h-80zm406 0h80v20h-80z" fill="#A38A65"></path><path d="M284 301v200m24-200v200m380-200v200m24-200v200" fill="none" stroke="#6A563D"></path><path d="M243 533h514v22H243zm-22 22h558v21H221z" fill="#B29870"></path><path d="m471 86-9-19 25 8 13-28 13 28 25-8-9 19zM463 94h74" fill="#BAA06B"></path><path d="M457 121c19-16 25 23 43 1 17 23 25-17 43-1M426 141c-12-28-30-11-11 0m171 0c12-28 30-11 11 0" fill="none"></path></g><g stroke="#A88E5B" fill="#7A5839" stroke-width="2"><path d="M404 467h192l-26 56H430z"></path><path d="M418 484c44 24 115 22 164 0M432 516h136m-127 7-12 12m130-12 12 12" fill="none"></path><path d="M450 452v-14m50 14v-23m50 23v-14" stroke="#D6B36E"></path></g><g stroke="#B69A64" stroke-width="2" fill="#D4C49A"><g><path d="M190 483V291m-24 192h48m-18-16h-12M181 291h18v-60h-18z"></path><path d="M190 211c-14 16-11 24 0 25 12-3 11-10 0-25z" fill="#E6BC6E"></path></g><g><path d="M810 483V291m-24 192h48m-18-16h-12M801 291h18v-60h-18z"></path><path d="M810 211c-14 16-11 24 0 25 12-3 11-10 0-25z" fill="#E6BC6E"></path></g></g><g fill="#D9BE83" opacity=".5"><circle cx="134" cy="56" r="2"></circle><circle cx="205" cy="99" r="1"></circle><circle cx="276" cy="142" r="1"></circle><circle cx="347" cy="185" r="1"></circle><circle cx="418" cy="228" r="1"></circle><circle cx="489" cy="271" r="2"></circle><circle cx="560" cy="314" r="1"></circle><circle cx="631" cy="357" r="1"></circle><circle cx="702" cy="400" r="1"></circle><circle cx="773" cy="443" r="1"></circle><circle cx="844" cy="486" r="2"></circle><circle cx="170" cy="529" r="1"></circle><circle cx="241" cy="85" r="1"></circle><circle cx="312" cy="128" r="1"></circle><circle cx="383" cy="171" r="1"></circle><circle cx="454" cy="214" r="2"></circle><circle cx="525" cy="257" r="1"></circle><circle cx="596" cy="300" r="1"></circle><circle cx="667" cy="343" r="1"></circle><circle cx="738" cy="386" r="1"></circle><circle cx="809" cy="429" r="2"></circle><circle cx="135" cy="472" r="1"></circle><circle cx="206" cy="515" r="1"></circle><circle cx="277" cy="71" r="1"></circle><circle cx="348" cy="114" r="1"></circle><circle cx="419" cy="157" r="2"></circle><circle cx="490" cy="200" r="1"></circle><circle cx="561" cy="243" r="1"></circle><circle cx="632" cy="286" r="1"></circle></g></svg>