<svg width="320" height="358.40000000000003" viewBox="0 0 240 270" xmlns="http://www.w3.org/2000/svg"><defs><linearGradient id="_R_0_coat" x1="0" y1="0" x2="1" y2="1"><stop offset="0" stop-color="#9DB6A8"></stop><stop offset="1" stop-color="#69877D"></stop></linearGradient><linearGradient id="_R_0_fur" x1="0" y1="0" x2="1" y2="1"><stop offset="0" stop-color="#FFFDF3"></stop><stop offset=".32" stop-color="#F7F2E5"></stop><stop offset="1" stop-color="#F7F2E5"></stop></linearGradient></defs><ellipse cx="120" cy="248" rx="67" ry="9" fill="#CCCEB9" opacity=".24"></ellipse><g stroke="#72634D" stroke-width="1.25" stroke-linejoin="round" stroke-linecap="round"><ellipse cx="96" cy="239" rx="20" ry="10" fill="#F7F2E5"></ellipse><ellipse cx="146" cy="239" rx="20" ry="10" fill="#F7F2E5"></ellipse><path d="M96 141c-27 12-32 54-34 89 24 15 91 16 117-1-3-42-11-77-34-88z" fill="url(#_R_0_coat)"></path><path d="m97 147 22 84 25-84M120 161v78M73 223c28 8 63 11 96 0" fill="none" stroke="#FFFDF3" opacity=".65"></path><path d="m98 148 9 21 13-10 15 10 8-21" fill="#FFFDF3"></path><circle cx="120" cy="177" r="2" fill="#CFB36B"></circle><circle cx="120" cy="195" r="2" fill="#CFB36B"></circle><path d="M84 163c-15-3-28 25-19 40 6 7 20 1 21-9" fill="#9DB6A8"></path><path d="M156 162c16-3 28 25 18 40-6 7-19 1-21-9" fill="#9DB6A8"></path><path d="M109 164c32-19 18-40 6-59-17-25-17-47 1-57 22-11 44 7 42 28-2 22-30 19-18 47 9 22 25 29 16 42" fill="#FFFDF3"></path><path d="m156 67 21 14-23 5" fill="#CBAB6D"></path><circle cx="142" cy="67" r="3" fill="#50473C"></circle><path d="M78 166c-24-10-46-6-41 14 5 21 32 46 74 42-13-12-21-35-33-56zM158 167c24-9 46-6 41 15-5 20-21 31-42 35" fill="#FFFDF3"></path><path d="M49 176c4 12 15 21 27 29m-13-35c1 14 10 25 22 33m-5-23c3 13 11 22 21 29m70-30c-3 14-6 18-14 25" fill="none" stroke="#BDBAA2"></path><path d="M78 181 163 227" stroke="#C1A477" stroke-width="9"></path><rect x="136" y="201" width="37" height="28" rx="4" fill="#B79465"></rect><path d="m137 203 17 15 18-15" fill="none"></path><path d="m109 49-5-14 13 6 6-14 7 13 12-7-3 15z" fill="#D5BA77"></path><circle cx="122" cy="39" r="2" fill="#FFF5CA"></circle><g opacity=".16" fill="none"><path d="m84 182-8 32m22-12-6 30m61-59 9 27m-13-3 8 21M80 101l-3 8m7-15-3 8M155 95l4 9m-6 4 4 10"></path></g></g></svg>