<svg width="320" height="358.40000000000003" viewBox="0 0 240 270" xmlns="http://www.w3.org/2000/svg"><defs><linearGradient id="_R_0_coat" x1="0" y1="0" x2="1" y2="1"><stop offset="0" stop-color="#A397B4"></stop><stop offset="1" stop-color="#746589"></stop></linearGradient><linearGradient id="_R_0_fur" x1="0" y1="0" x2="1" y2="1"><stop offset="0" stop-color="#FFFAEE"></stop><stop offset=".32" stop-color="#E7DFD3"></stop><stop offset="1" stop-color="#E7DFD3"></stop></linearGradient></defs><ellipse cx="120" cy="248" rx="67" ry="9" fill="#C8C4D2" opacity=".24"></ellipse><g stroke="#72634D" stroke-width="1.25" stroke-linejoin="round" stroke-linecap="round"><circle cx="175" cy="219" r="15" fill="#FFFAEE"></circle><ellipse cx="96" cy="239" rx="20" ry="10" fill="#E7DFD3"></ellipse><ellipse cx="146" cy="239" rx="20" ry="10" fill="#E7DFD3"></ellipse><path d="M96 141c-27 12-32 54-34 89 24 15 91 16 117-1-3-42-11-77-34-88z" fill="url(#_R_0_coat)"></path><path d="m97 147 22 84 25-84M120 161v78M73 223c28 8 63 11 96 0" fill="none" stroke="#FFFAEE" opacity=".65"></path><path d="m98 148 9 21 13-10 15 10 8-21" fill="#FFFAEE"></path><circle cx="120" cy="177" r="2" fill="#CFB36B"></circle><circle cx="120" cy="195" r="2" fill="#CFB36B"></circle><path d="M84 163c-15-3-28 25-19 40 6 7 20 1 21-9" fill="#A397B4"></path><path d="M156 162c16-3 28 25 18 40-6 7-19 1-21-9" fill="#A397B4"></path><path d="M89 93C57 43 70 1 85 14c15 15 20 52 21 72M131 85c-1-43 20-88 31-73 10 17-1 54-14 81" fill="url(#_R_0_fur)"></path><path d="M87 73c-11-24-14-48-7-47 9 6 15 37 16 50M139 74c2-27 12-51 16-50 4 10-4 37-9 52" fill="#D3B5B3" stroke="none"></path><path d="M72 94c6-33 89-35 97 0 19 53-7 72-49 72S52 146 72 94z" fill="url(#_R_0_fur)"></path><path d="M86 128c14-9 22 3 34 7 13-5 21-16 35-6 4 20-19 32-35 32-17 0-41-13-34-33z" fill="#FFFAEE" stroke="none"></path><path d="m115 138 5 5 6-5c-3-3-8-3-11 0z" fill="#655140"></path><path d="M120 144v6m-6 1c3 3 9 3 12 0" fill="none"></path><ellipse cx="96" cy="117" rx="3.6" ry="5.1" fill="#483F36"></ellipse><ellipse cx="144" cy="117" rx="3.6" ry="5.1" fill="#483F36"></ellipse><circle cx="97" cy="115" r="1" fill="#FFF9E8" stroke="none"></circle><circle cx="145" cy="115" r="1" fill="#FFF9E8" stroke="none"></circle><ellipse cx="82" cy="130" rx="7" ry="3" fill="#C59881" opacity=".4" stroke="none"></ellipse><ellipse cx="158" cy="130" rx="7" ry="3" fill="#C59881" opacity=".4" stroke="none"></ellipse><path d="M78 181 163 227" stroke="#C1A477" stroke-width="9"></path><rect x="136" y="201" width="37" height="28" rx="4" fill="#B79465"></rect><path d="m137 203 17 15 18-15" fill="none"></path><path d="M58 213c16-11 10-25 19-30" fill="none" stroke="#7C8D69"></path><path d="M75 191c-16-3-11-13-4-9 0-11 12-10 10 0 10-3 14 7 2 11" fill="#EEE4F2"></path><g opacity=".16" fill="none"><path d="m84 182-8 32m22-12-6 30m61-59 9 27m-13-3 8 21M80 101l-3 8m7-15-3 8M155 95l4 9m-6 4 4 10"></path></g></g></svg>