<svg width="340" height="300" viewBox="0 0 340 300" xmlns="http://www.w3.org/2000/svg"><ellipse cx="170" cy="284" rx="149" ry="11" fill="#4F3829" opacity=".15"></ellipse><g stroke="#A08452" stroke-width="1.4"><path d="M90 221V95c0-99 160-99 160 0v126" fill="#EDE5D7"></path><path d="M99 207V96c0-86 142-86 142 0v111" fill="#9A9AAE"></path><path d="M106 97c0-78 128-78 128 0" fill="none" stroke="#E1CA8C"></path><circle cx="170" cy="34" r="5" fill="#C7AD6D"></circle><path d="m144 44 26-24 26 24m-26-18v18" fill="none"></path></g><g transform="translate(57 1)"><svg width="226" height="253.12000000000003" viewBox="0 0 240 270" xmlns="http://www.w3.org/2000/svg"><defs><linearGradient id="_R_3_coat" x1="0" y1="0" x2="1" y2="1"><stop offset="0" stop-color="#A397B4"></stop><stop offset="1" stop-color="#746589"></stop></linearGradient><linearGradient id="_R_3_fur" x1="0" y1="0" x2="1" y2="1"><stop offset="0" stop-color="#FFFAEE"></stop><stop offset=".32" stop-color="#E7DFD3"></stop><stop offset="1" stop-color="#E7DFD3"></stop></linearGradient></defs><ellipse cx="120" cy="248" rx="67" ry="9" fill="#C8C4D2" opacity=".24"></ellipse><g stroke="#72634D" stroke-width="1.25" stroke-linejoin="round" stroke-linecap="round"><circle cx="175" cy="219" r="15" fill="#FFFAEE"></circle><ellipse cx="96" cy="239" rx="20" ry="10" fill="#E7DFD3"></ellipse><ellipse cx="146" cy="239" rx="20" ry="10" fill="#E7DFD3"></ellipse><path d="M96 141c-27 12-32 54-34 89 24 15 91 16 117-1-3-42-11-77-34-88z" fill="url(#_R_3_coat)"></path><path d="m97 147 22 84 25-84M120 161v78M73 223c28 8 63 11 96 0" fill="none" stroke="#FFFAEE" opacity=".65"></path><path d="m98 148 9 21 13-10 15 10 8-21" fill="#FFFAEE"></path><circle cx="120" cy="177" r="2" fill="#CFB36B"></circle><circle cx="120" cy="195" r="2" fill="#CFB36B"></circle><path d="M84 163c-15-3-28 25-19 40 6 7 20 1 21-9" fill="#A397B4"></path><path d="M156 162c16-3 28 25 18 40-6 7-19 1-21-9" fill="#A397B4"></path><path d="M89 93C57 43 70 1 85 14c15 15 20 52 21 72M131 85c-1-43 20-88 31-73 10 17-1 54-14 81" fill="url(#_R_3_fur)"></path><path d="M87 73c-11-24-14-48-7-47 9 6 15 37 16 50M139 74c2-27 12-51 16-50 4 10-4 37-9 52" fill="#D3B5B3" stroke="none"></path><path d="M72 94c6-33 89-35 97 0 19 53-7 72-49 72S52 146 72 94z" fill="url(#_R_3_fur)"></path><path d="M86 128c14-9 22 3 34 7 13-5 21-16 35-6 4 20-19 32-35 32-17 0-41-13-34-33z" fill="#FFFAEE" stroke="none"></path><path d="m115 138 5 5 6-5c-3-3-8-3-11 0z" fill="#655140"></path><path d="M120 144v6m-6 1c3 3 9 3 12 0" fill="none"></path><ellipse cx="96" cy="117" rx="3.6" ry="5.1" fill="#483F36"></ellipse><ellipse cx="144" cy="117" rx="3.6" ry="5.1" fill="#483F36"></ellipse><circle cx="97" cy="115" r="1" fill="#FFF9E8" stroke="none"></circle><circle cx="145" cy="115" r="1" fill="#FFF9E8" stroke="none"></circle><ellipse cx="82" cy="130" rx="7" ry="3" fill="#C59881" opacity=".4" stroke="none"></ellipse><ellipse cx="158" cy="130" rx="7" ry="3" fill="#C59881" opacity=".4" stroke="none"></ellipse><path d="M78 181 163 227" stroke="#C1A477" stroke-width="9"></path><rect x="136" y="201" width="37" height="28" rx="4" fill="#B79465"></rect><path d="m137 203 17 15 18-15" fill="none"></path><path d="M58 213c16-11 10-25 19-30" fill="none" stroke="#7C8D69"></path><path d="M75 191c-16-3-11-13-4-9 0-11 12-10 10 0 10-3 14 7 2 11" fill="#EEE4F2"></path><g opacity=".16" fill="none"><path d="m84 182-8 32m22-12-6 30m61-59 9 27m-13-3 8 21M80 101l-3 8m7-15-3 8M155 95l4 9m-6 4 4 10"></path></g></g></svg></g><g stroke="#8D6B40" stroke-width="1.5" stroke-linejoin="round"><path d="m43 204-6 77h12l13-74m235-3 6 77h-12l-13-74" fill="#81613E"></path><path d="M40 176h260l21 28H19z" fill="#B99B65"></path><path d="M21 204h298v13H21z" fill="#84603C"></path><path d="M59 217h222v32H59z" fill="#A4814F"></path><path d="M68 223h90v19H68zm114 0h90v19h-90z" fill="none" stroke="#D6BB7B"></path><circle cx="113" cy="232" r="3" fill="#E4C784"></circle><circle cx="227" cy="232" r="3" fill="#E4C784"></circle><path d="m128 180 66-7 24 24-77 2z" fill="#FFF0CD"></path><path d="m148 185 42-3m-38 9 39-3" fill="none" opacity=".5"></path><path d="M251 181v-9h16v9l5 12h-26z" fill="#4D534E"></path><path d="M48 181v-15h31v15" fill="#A397B4"></path><path d="M59 169v-48h10v48" fill="#F1DEAD"></path><path d="M64 123c-13-8-5-24 0-30 6 12 12 21 0 30" fill="#F4CC71"></path><path d="M163 212h14v43l-7 9-7-9z" fill="#746589"></path><circle cx="170" cy="227" r="5" fill="#EACF8C"></circle></g></svg>