<svg width="340" height="300" viewBox="0 0 340 300" xmlns="http://www.w3.org/2000/svg"><ellipse cx="170" cy="284" rx="149" ry="11" fill="#4F3829" opacity=".15"></ellipse><g stroke="#A08452" stroke-width="1.4"><path d="M90 221V95c0-99 160-99 160 0v126" fill="#E9DDD6"></path><path d="M99 207V96c0-86 142-86 142 0v111" fill="#867B9A"></path><path d="M106 97c0-78 128-78 128 0" fill="none" stroke="#E1CA8C"></path><circle cx="170" cy="34" r="5" fill="#C7AD6D"></circle><path d="m144 44 26-24 26 24m-26-18v18" fill="none"></path></g><g transform="translate(57 1)"><svg width="226" height="253.12000000000003" viewBox="0 0 240 270" xmlns="http://www.w3.org/2000/svg"><defs><linearGradient id="_R_3_coat" x1="0" y1="0" x2="1" y2="1"><stop offset="0" stop-color="#8C7499"></stop><stop offset="1" stop-color="#746083"></stop></linearGradient><linearGradient id="_R_3_fur" x1="0" y1="0" x2="1" y2="1"><stop offset="0" stop-color="#DDD9E3"></stop><stop offset=".32" stop-color="#7F8292"></stop><stop offset="1" stop-color="#7F8292"></stop></linearGradient></defs><ellipse cx="120" cy="248" rx="67" ry="9" fill="#C0AEC3" opacity=".24"></ellipse><g stroke="#72634D" stroke-width="1.25" stroke-linejoin="round" stroke-linecap="round"><path d="M166 222c62 12 64-46 38-45-22 1-2 28-10 39-5 7-14 5-28 0" fill="#7F8292"></path><ellipse cx="96" cy="239" rx="20" ry="10" fill="#7F8292"></ellipse><ellipse cx="146" cy="239" rx="20" ry="10" fill="#7F8292"></ellipse><path d="M96 141c-27 12-32 54-34 89 24 15 91 16 117-1-3-42-11-77-34-88z" fill="url(#_R_3_coat)"></path><path d="m97 147 22 84 25-84M120 161v78M73 223c28 8 63 11 96 0" fill="none" stroke="#DDD9E3" opacity=".65"></path><path d="m98 148 9 21 13-10 15 10 8-21" fill="#DDD9E3"></path><circle cx="120" cy="177" r="2" fill="#CFB36B"></circle><circle cx="120" cy="195" r="2" fill="#CFB36B"></circle><path d="M84 163c-15-3-28 25-19 40 6 7 20 1 21-9" fill="#8C7499"></path><path d="M156 162c16-3 28 25 18 40-6 7-19 1-21-9" fill="#8C7499"></path><path d="M79 105 64 42c27 5 45 22 47 39M135 81c14-22 29-32 43-39l-10 68" fill="#7F8292"></path><path d="m78 82-5-26 22 25m54 1 19-26-4 31" fill="#C6A2AA" stroke="none"></path><path d="M72 94c6-33 89-35 97 0 19 53-7 72-49 72S52 146 72 94z" fill="url(#_R_3_fur)"></path><path d="M86 128c14-9 22 3 34 7 13-5 21-16 35-6 4 20-19 32-35 32-17 0-41-13-34-33z" fill="#DDD9E3" stroke="none"></path><path d="m115 138 5 5 6-5c-3-3-8-3-11 0z" fill="#655140"></path><path d="M120 144v6m-6 1c3 3 9 3 12 0" fill="none"></path><path d="m77 133-24-4m25 11-26 3m110-10 24-4m-25 11 26 3" opacity=".65"></path><ellipse cx="96" cy="117" rx="3.6" ry="5.1" fill="#483F36"></ellipse><ellipse cx="144" cy="117" rx="3.6" ry="5.1" fill="#483F36"></ellipse><circle cx="97" cy="115" r="1" fill="#FFF9E8" stroke="none"></circle><circle cx="145" cy="115" r="1" fill="#FFF9E8" stroke="none"></circle><ellipse cx="82" cy="130" rx="7" ry="3" fill="#C59881" opacity=".4" stroke="none"></ellipse><ellipse cx="158" cy="130" rx="7" ry="3" fill="#C59881" opacity=".4" stroke="none"></ellipse><path d="M78 181 163 227" stroke="#C1A477" stroke-width="9"></path><rect x="136" y="201" width="37" height="28" rx="4" fill="#B79465"></rect><path d="m137 203 17 15 18-15" fill="none"></path><path d="m61 182 3 8 8 3-8 3-3 8-3-8-8-3 8-3z" fill="#E8D08E"></path><path d="M115 91a8 8 0 1 0 13-10 10 10 0 0 1-13 10z" fill="#EAD595" stroke="none"></path><g opacity=".16" fill="none"><path d="m84 182-8 32m22-12-6 30m61-59 9 27m-13-3 8 21M80 101l-3 8m7-15-3 8M155 95l4 9m-6 4 4 10"></path></g></g></svg></g><g stroke="#8D6B40" stroke-width="1.5" stroke-linejoin="round"><path d="m43 204-6 77h12l13-74m235-3 6 77h-12l-13-74" fill="#81613E"></path><path d="M40 176h260l21 28H19z" fill="#B99B65"></path><path d="M21 204h298v13H21z" fill="#84603C"></path><path d="M59 217h222v32H59z" fill="#A4814F"></path><path d="M68 223h90v19H68zm114 0h90v19h-90z" fill="none" stroke="#D6BB7B"></path><circle cx="113" cy="232" r="3" fill="#E4C784"></circle><circle cx="227" cy="232" r="3" fill="#E4C784"></circle><path d="m128 180 66-7 24 24-77 2z" fill="#FFF0CD"></path><path d="m148 185 42-3m-38 9 39-3" fill="none" opacity=".5"></path><path d="M251 181v-9h16v9l5 12h-26z" fill="#4D534E"></path><path d="M48 181v-15h31v15" fill="#8C7499"></path><path d="M59 169v-48h10v48" fill="#F1DEAD"></path><path d="M64 123c-13-8-5-24 0-30 6 12 12 21 0 30" fill="#F4CC71"></path><path d="M163 212h14v43l-7 9-7-9z" fill="#746083"></path><circle cx="170" cy="227" r="5" fill="#EACF8C"></circle></g></svg>