<svg width="600" height="800" viewBox="0 0 600 800" xmlns="http://www.w3.org/2000/svg"><defs><clipPath id="sheet-mask"><path d="M13 12L87 9 142 13 204 8 280 11 358 7 414 12 487 8 576 12 589 31 587 122 592 193 588 277 592 348 587 431 591 511 587 598 591 685 587 773 575 787 501 790 422 786 351 792 279 788 195 791 124 786 41 791 12 780 9 705 13 626 8 548 12 465 8 381 12 298 8 213 13 137 8 58Z"></path></clipPath><radialGradient id="age"><stop offset=".45" stop-color="#B17A36" stop-opacity="0"></stop><stop offset=".88" stop-color="#9A6329" stop-opacity=".035"></stop><stop offset="1" stop-color="#79431D" stop-opacity=".15"></stop></radialGradient><linearGradient id="fold"><stop stop-color="#AD7947" stop-opacity="0"></stop><stop offset=".47" stop-color="#AD7947" stop-opacity="0"></stop><stop offset=".5" stop-color="#FFF7D8" stop-opacity=".2"></stop><stop offset=".51" stop-color="#6E4621" stop-opacity=".06"></stop><stop offset=".55" stop-color="#AD7947" stop-opacity="0"></stop></linearGradient></defs><g clip-path="url(#sheet-mask)"><rect width="600" height="800" fill="url(#age)"></rect><rect width="600" height="800" fill="url(#fold)"></rect><ellipse cx="38" cy="102" rx="86" ry="35" fill="#987047" opacity=".035"></ellipse><ellipse cx="524" cy="640" rx="88" ry="43" fill="#987047" opacity=".035"></ellipse><ellipse cx="86" cy="740" rx="63" ry="20" fill="#987047" opacity=".035"></ellipse><ellipse cx="477" cy="67" rx="65" ry="43" fill="#987047" opacity=".035"></ellipse><g stroke="#744722" stroke-width=".5" opacity=".08"><path d="M19 41l1 -1"></path><path d="M156 124l2 0"></path><path d="M293 207l3 1"></path><path d="M430 290l4 -1"></path><path d="M567 373l5 0"></path><path d="M104 456l1 1"></path><path d="M241 539l2 -1"></path><path d="M378 622l3 0"></path><path d="M515 705l4 1"></path><path d="M52 788l5 -1"></path><path d="M189 71l1 0"></path><path d="M326 154l2 1"></path><path d="M463 237l3 -1"></path><path d="M0 320l4 0"></path><path d="M137 403l5 1"></path><path d="M274 486l1 -1"></path><path d="M411 569l2 0"></path><path d="M548 652l3 1"></path><path d="M85 735l4 -1"></path><path d="M222 18l5 0"></path><path d="M359 101l1 1"></path><path d="M496 184l2 -1"></path><path d="M33 267l3 0"></path><path d="M170 350l4 1"></path><path d="M307 433l5 -1"></path><path d="M444 516l1 0"></path><path d="M581 599l2 1"></path><path d="M118 682l3 -1"></path><path d="M255 765l4 0"></path><path d="M392 48l5 1"></path><path d="M529 131l1 -1"></path><path d="M66 214l2 0"></path><path d="M203 297l3 1"></path><path d="M340 380l4 -1"></path><path d="M477 463l5 0"></path><path d="M14 546l1 1"></path><path d="M151 629l2 -1"></path><path d="M288 712l3 0"></path><path d="M425 795l4 1"></path><path d="M562 78l5 -1"></path><path d="M99 161l1 0"></path><path d="M236 244l2 1"></path><path d="M373 327l3 -1"></path><path d="M510 410l4 0"></path><path d="M47 493l5 1"></path><path d="M184 576l1 -1"></path><path d="M321 659l2 0"></path><path d="M458 742l3 1"></path><path d="M595 25l4 -1"></path><path d="M132 108l5 0"></path><path d="M269 191l1 1"></path><path d="M406 274l2 -1"></path><path d="M543 357l3 0"></path><path d="M80 440l4 1"></path><path d="M217 523l5 -1"></path><path d="M354 606l1 0"></path><path d="M491 689l2 1"></path><path d="M28 772l3 -1"></path><path d="M165 55l4 0"></path><path d="M302 138l5 1"></path><path d="M439 221l1 -1"></path><path d="M576 304l2 0"></path><path d="M113 387l3 1"></path><path d="M250 470l4 -1"></path><path d="M387 553l5 0"></path><path d="M524 636l1 1"></path><path d="M61 719l2 -1"></path><path d="M198 2l3 0"></path><path d="M335 85l4 1"></path><path d="M472 168l5 -1"></path><path d="M9 251l1 0"></path><path d="M146 334l2 1"></path><path d="M283 417l3 -1"></path><path d="M420 500l4 0"></path><path d="M557 583l5 1"></path><path d="M94 666l1 -1"></path><path d="M231 749l2 0"></path><path d="M368 32l3 1"></path><path d="M505 115l4 -1"></path><path d="M42 198l5 0"></path><path d="M179 281l1 1"></path><path d="M316 364l2 -1"></path><path d="M453 447l3 0"></path><path d="M590 530l4 1"></path><path d="M127 613l5 -1"></path><path d="M264 696l1 0"></path><path d="M401 779l2 1"></path><path d="M538 62l3 -1"></path><path d="M75 145l4 0"></path><path d="M212 228l5 1"></path><path d="M349 311l1 -1"></path><path d="M486 394l2 0"></path><path d="M23 477l3 1"></path><path d="M160 560l4 -1"></path><path d="M297 643l5 0"></path><path d="M434 726l1 1"></path><path d="M571 9l2 -1"></path><path d="M108 92l3 0"></path><path d="M245 175l4 1"></path><path d="M382 258l5 -1"></path><path d="M519 341l1 0"></path><path d="M56 424l2 1"></path><path d="M193 507l3 -1"></path><path d="M330 590l4 0"></path><path d="M467 673l5 1"></path><path d="M4 756l1 -1"></path><path d="M141 39l2 0"></path><path d="M278 122l3 1"></path><path d="M415 205l4 -1"></path><path d="M552 288l5 0"></path><path d="M89 371l1 1"></path><path d="M226 454l2 -1"></path><path d="M363 537l3 0"></path><path d="M500 620l4 1"></path><path d="M37 703l5 -1"></path><path d="M174 786l1 0"></path><path d="M311 69l2 1"></path><path d="M448 152l3 -1"></path><path d="M585 235l4 0"></path><path d="M122 318l5 1"></path><path d="M259 401l1 -1"></path><path d="M396 484l2 0"></path><path d="M533 567l3 1"></path><path d="M70 650l4 -1"></path><path d="M207 733l5 0"></path><path d="M344 16l1 1"></path><path d="M481 99l2 -1"></path><path d="M18 182l3 0"></path><path d="M155 265l4 1"></path><path d="M292 348l5 -1"></path><path d="M429 431l1 0"></path><path d="M566 514l2 1"></path><path d="M103 597l3 -1"></path><path d="M240 680l4 0"></path><path d="M377 763l5 1"></path><path d="M514 46l1 -1"></path><path d="M51 129l2 0"></path><path d="M188 212l3 1"></path><path d="M325 295l4 -1"></path><path d="M462 378l5 0"></path><path d="M599 461l1 1"></path><path d="M136 544l2 -1"></path><path d="M273 627l3 0"></path><path d="M410 710l4 1"></path><path d="M547 793l5 -1"></path><path d="M84 76l1 0"></path><path d="M221 159l2 1"></path><path d="M358 242l3 -1"></path><path d="M495 325l4 0"></path><path d="M32 408l5 1"></path><path d="M169 491l1 -1"></path><path d="M306 574l2 0"></path><path d="M443 657l3 1"></path><path d="M580 740l4 -1"></path><path d="M117 23l5 0"></path><path d="M254 106l1 1"></path><path d="M391 189l2 -1"></path><path d="M528 272l3 0"></path><path d="M65 355l4 1"></path><path d="M202 438l5 -1"></path><path d="M339 521l1 0"></path><path d="M476 604l2 1"></path><path d="M13 687l3 -1"></path><path d="M150 770l4 0"></path><path d="M287 53l5 1"></path><path d="M424 136l1 -1"></path><path d="M561 219l2 0"></path><path d="M98 302l3 1"></path><path d="M235 385l4 -1"></path><path d="M372 468l5 0"></path><path d="M509 551l1 1"></path><path d="M46 634l2 -1"></path><path d="M183 717l3 0"></path><path d="M320 0l4 1"></path><path d="M457 83l5 -1"></path><path d="M594 166l1 0"></path><path d="M131 249l2 1"></path><path d="M268 332l3 -1"></path><path d="M405 415l4 0"></path><path d="M542 498l5 1"></path><path d="M79 581l1 -1"></path><path d="M216 664l2 0"></path><path d="M353 747l3 1"></path><path d="M490 30l4 -1"></path><path d="M27 113l5 0"></path><path d="M164 196l1 1"></path><path d="M301 279l2 -1"></path><path d="M438 362l3 0"></path><path d="M575 445l4 1"></path><path d="M112 528l5 -1"></path><path d="M249 611l1 0"></path><path d="M386 694l2 1"></path><path d="M523 777l3 -1"></path><path d="M60 60l4 0"></path><path d="M197 143l5 1"></path><path d="M334 226l1 -1"></path><path d="M471 309l2 0"></path><path d="M8 392l3 1"></path><path d="M145 475l4 -1"></path><path d="M282 558l5 0"></path><path d="M419 641l1 1"></path><path d="M556 724l2 -1"></path><path d="M93 7l3 0"></path><path d="M230 90l4 1"></path><path d="M367 173l5 -1"></path><path d="M504 256l1 0"></path><path d="M41 339l2 1"></path><path d="M178 422l3 -1"></path><path d="M315 505l4 0"></path><path d="M452 588l5 1"></path><path d="M589 671l1 -1"></path><path d="M126 754l2 0"></path><path d="M263 37l3 1"></path><path d="M400 120l4 -1"></path><path d="M537 203l5 0"></path><path d="M74 286l1 1"></path><path d="M211 369l2 -1"></path><path d="M348 452l3 0"></path><path d="M485 535l4 1"></path><path d="M22 618l5 -1"></path><path d="M159 701l1 0"></path><path d="M296 784l2 1"></path><path d="M433 67l3 -1"></path><path d="M570 150l4 0"></path><path d="M107 233l5 1"></path><path d="M244 316l1 -1"></path><path d="M381 399l2 0"></path><path d="M518 482l3 1"></path><path d="M55 565l4 -1"></path><path d="M192 648l5 0"></path><path d="M329 731l1 1"></path><path d="M466 14l2 -1"></path><path d="M3 97l3 0"></path><path d="M140 180l4 1"></path><path d="M277 263l5 -1"></path><path d="M414 346l1 0"></path><path d="M551 429l2 1"></path><path d="M88 512l3 -1"></path><path d="M225 595l4 0"></path><path d="M362 678l5 1"></path><path d="M499 761l1 -1"></path><path d="M36 44l2 0"></path><path d="M173 127l3 1"></path><path d="M310 210l4 -1"></path><path d="M447 293l5 0"></path><path d="M584 376l1 1"></path><path d="M121 459l2 -1"></path><path d="M258 542l3 0"></path><path d="M395 625l4 1"></path><path d="M532 708l5 -1"></path><path d="M69 791l1 0"></path><path d="M206 74l2 1"></path><path d="M343 157l3 -1"></path><path d="M480 240l4 0"></path><path d="M17 323l5 1"></path><path d="M154 406l1 -1"></path><path d="M291 489l2 0"></path><path d="M428 572l3 1"></path><path d="M565 655l4 -1"></path><path d="M102 738l5 0"></path><path d="M239 21l1 1"></path><path d="M376 104l2 -1"></path><path d="M513 187l3 0"></path><path d="M50 270l4 1"></path><path d="M187 353l5 -1"></path><path d="M324 436l1 0"></path><path d="M461 519l2 1"></path><path d="M598 602l3 -1"></path><path d="M135 685l4 0"></path><path d="M272 768l5 1"></path><path d="M409 51l1 -1"></path><path d="M546 134l2 0"></path><path d="M83 217l3 1"></path><path d="M220 300l4 -1"></path><path d="M357 383l5 0"></path><path d="M494 466l1 1"></path><path d="M31 549l2 -1"></path><path d="M168 632l3 0"></path><path d="M305 715l4 1"></path><path d="M442 798l5 -1"></path><path d="M579 81l1 0"></path><path d="M116 164l2 1"></path><path d="M253 247l3 -1"></path><path d="M390 330l4 0"></path><path d="M527 413l5 1"></path><path d="M64 496l1 -1"></path><path d="M201 579l2 0"></path><path d="M338 662l3 1"></path><path d="M475 745l4 -1"></path><path d="M12 28l5 0"></path><path d="M149 111l1 1"></path><path d="M286 194l2 -1"></path><path d="M423 277l3 0"></path><path d="M560 360l4 1"></path><path d="M97 443l5 -1"></path><path d="M234 526l1 0"></path><path d="M371 609l2 1"></path><path d="M508 692l3 -1"></path><path d="M45 775l4 0"></path><path d="M182 58l5 1"></path><path d="M319 141l1 -1"></path><path d="M456 224l2 0"></path><path d="M593 307l3 1"></path><path d="M130 390l4 -1"></path><path d="M267 473l5 0"></path><path d="M404 556l1 1"></path><path d="M541 639l2 -1"></path><path d="M78 722l3 0"></path><path d="M215 5l4 1"></path><path d="M352 88l5 -1"></path><path d="M489 171l1 0"></path><path d="M26 254l2 1"></path><path d="M163 337l3 -1"></path><path d="M300 420l4 0"></path><path d="M437 503l5 1"></path><path d="M574 586l1 -1"></path><path d="M111 669l2 0"></path><path d="M248 752l3 1"></path><path d="M385 35l4 -1"></path><path d="M522 118l5 0"></path><path d="M59 201l1 1"></path><path d="M196 284l2 -1"></path><path d="M333 367l3 0"></path><path d="M470 450l4 1"></path><path d="M7 533l5 -1"></path><path d="M144 616l1 0"></path><path d="M281 699l2 1"></path><path d="M418 782l3 -1"></path><path d="M555 65l4 0"></path><path d="M92 148l5 1"></path><path d="M229 231l1 -1"></path><path d="M366 314l2 0"></path><path d="M503 397l3 1"></path><path d="M40 480l4 -1"></path><path d="M177 563l5 0"></path><path d="M314 646l1 1"></path><path d="M451 729l2 -1"></path><path d="M588 12l3 0"></path><path d="M125 95l4 1"></path><path d="M262 178l5 -1"></path><path d="M399 261l1 0"></path><path d="M536 344l2 1"></path><path d="M73 427l3 -1"></path><path d="M210 510l4 0"></path><path d="M347 593l5 1"></path><path d="M484 676l1 -1"></path><path d="M21 759l2 0"></path><path d="M158 42l3 1"></path><path d="M295 125l4 -1"></path><path d="M432 208l5 0"></path><path d="M569 291l1 1"></path><path d="M106 374l2 -1"></path><path d="M243 457l3 0"></path><path d="M380 540l4 1"></path><path d="M517 623l5 -1"></path><path d="M54 706l1 0"></path><path d="M191 789l2 1"></path><path d="M328 72l3 -1"></path><path d="M465 155l4 0"></path><path d="M2 238l5 1"></path><path d="M139 321l1 -1"></path><path d="M276 404l2 0"></path><path d="M413 487l3 1"></path><path d="M550 570l4 -1"></path><path d="M87 653l5 0"></path><path d="M224 736l1 1"></path><path d="M361 19l2 -1"></path><path d="M498 102l3 0"></path><path d="M35 185l4 1"></path><path d="M172 268l5 -1"></path><path d="M309 351l1 0"></path><path d="M446 434l2 1"></path><path d="M583 517l3 -1"></path><path d="M120 600l4 0"></path><path d="M257 683l5 1"></path><path d="M394 766l1 -1"></path><path d="M531 49l2 0"></path><path d="M68 132l3 1"></path><path d="M205 215l4 -1"></path><path d="M342 298l5 0"></path><path d="M479 381l1 1"></path><path d="M16 464l2 -1"></path><path d="M153 547l3 0"></path><path d="M290 630l4 1"></path><path d="M427 713l5 -1"></path><path d="M564 796l1 0"></path><path d="M101 79l2 1"></path><path d="M238 162l3 -1"></path><path d="M375 245l4 0"></path><path d="M512 328l5 1"></path><path d="M49 411l1 -1"></path><path d="M186 494l2 0"></path><path d="M323 577l3 1"></path><path d="M460 660l4 -1"></path><path d="M597 743l5 0"></path><path d="M134 26l1 1"></path><path d="M271 109l2 -1"></path><path d="M408 192l3 0"></path><path d="M545 275l4 1"></path><path d="M82 358l5 -1"></path><path d="M219 441l1 0"></path><path d="M356 524l2 1"></path><path d="M493 607l3 -1"></path><path d="M30 690l4 0"></path><path d="M167 773l5 1"></path><path d="M304 56l1 -1"></path><path d="M441 139l2 0"></path><path d="M578 222l3 1"></path><path d="M115 305l4 -1"></path><path d="M252 388l5 0"></path><path d="M389 471l1 1"></path><path d="M526 554l2 -1"></path><path d="M63 637l3 0"></path><path d="M200 720l4 1"></path><path d="M337 3l5 -1"></path><path d="M474 86l1 0"></path><path d="M11 169l2 1"></path><path d="M148 252l3 -1"></path><path d="M285 335l4 0"></path><path d="M422 418l5 1"></path><path d="M559 501l1 -1"></path><path d="M96 584l2 0"></path><path d="M233 667l3 1"></path><path d="M370 750l4 -1"></path><path d="M507 33l5 0"></path><path d="M44 116l1 1"></path><path d="M181 199l2 -1"></path><path d="M318 282l3 0"></path><path d="M455 365l4 1"></path><path d="M592 448l5 -1"></path><path d="M129 531l1 0"></path><path d="M266 614l2 1"></path><path d="M403 697l3 -1"></path><path d="M540 780l4 0"></path><path d="M77 63l5 1"></path><path d="M214 146l1 -1"></path><path d="M351 229l2 0"></path><path d="M488 312l3 1"></path><path d="M25 395l4 -1"></path><path d="M162 478l5 0"></path><path d="M299 561l1 1"></path><path d="M436 644l2 -1"></path><path d="M573 727l3 0"></path><path d="M110 10l4 1"></path><path d="M247 93l5 -1"></path><path d="M384 176l1 0"></path><path d="M521 259l2 1"></path><path d="M58 342l3 -1"></path><path d="M195 425l4 0"></path><path d="M332 508l5 1"></path><path d="M469 591l1 -1"></path><path d="M6 674l2 0"></path><path d="M143 757l3 1"></path><path d="M280 40l4 -1"></path><path d="M417 123l5 0"></path><path d="M554 206l1 1"></path><path d="M91 289l2 -1"></path><path d="M228 372l3 0"></path><path d="M365 455l4 1"></path><path d="M502 538l5 -1"></path><path d="M39 621l1 0"></path><path d="M176 704l2 1"></path><path d="M313 787l3 -1"></path><path d="M450 70l4 0"></path><path d="M587 153l5 1"></path><path d="M124 236l1 -1"></path><path d="M261 319l2 0"></path><path d="M398 402l3 1"></path><path d="M535 485l4 -1"></path><path d="M72 568l5 0"></path><path d="M209 651l1 1"></path><path d="M346 734l2 -1"></path><path d="M483 17l3 0"></path><path d="M20 100l4 1"></path><path d="M157 183l5 -1"></path><path d="M294 266l1 0"></path><path d="M431 349l2 1"></path><path d="M568 432l3 -1"></path><path d="M105 515l4 0"></path><path d="M242 598l5 1"></path><path d="M379 681l1 -1"></path><path d="M516 764l2 0"></path><path d="M53 47l3 1"></path><path d="M190 130l4 -1"></path><path d="M327 213l5 0"></path><path d="M464 296l1 1"></path><path d="M1 379l2 -1"></path><path d="M138 462l3 0"></path><path d="M275 545l4 1"></path><path d="M412 628l5 -1"></path><path d="M549 711l1 0"></path><path d="M86 794l2 1"></path><path d="M223 77l3 -1"></path><path d="M360 160l4 0"></path><path d="M497 243l5 1"></path><path d="M34 326l1 -1"></path><path d="M171 409l2 0"></path><path d="M308 492l3 1"></path><path d="M445 575l4 -1"></path><path d="M582 658l5 0"></path><path d="M119 741l1 1"></path><path d="M256 24l2 -1"></path><path d="M393 107l3 0"></path><path d="M530 190l4 1"></path><path d="M67 273l5 -1"></path><path d="M204 356l1 0"></path><path d="M341 439l2 1"></path><path d="M478 522l3 -1"></path><path d="M15 605l4 0"></path><path d="M152 688l5 1"></path><path d="M289 771l1 -1"></path><path d="M426 54l2 0"></path><path d="M563 137l3 1"></path><path d="M100 220l4 -1"></path><path d="M237 303l5 0"></path><path d="M374 386l1 1"></path><path d="M511 469l2 -1"></path><path d="M48 552l3 0"></path><path d="M185 635l4 1"></path><path d="M322 718l5 -1"></path><path d="M459 1l1 0"></path><path d="M596 84l2 1"></path><path d="M133 167l3 -1"></path><path d="M270 250l4 0"></path><path d="M407 333l5 1"></path><path d="M544 416l1 -1"></path><path d="M81 499l2 0"></path><path d="M218 582l3 1"></path><path d="M355 665l4 -1"></path><path d="M492 748l5 0"></path><path d="M29 31l1 1"></path><path d="M166 114l2 -1"></path><path d="M303 197l3 0"></path><path d="M440 280l4 1"></path><path d="M577 363l5 -1"></path><path d="M114 446l1 0"></path><path d="M251 529l2 1"></path><path d="M388 612l3 -1"></path><path d="M525 695l4 0"></path><path d="M62 778l5 1"></path><path d="M199 61l1 -1"></path><path d="M336 144l2 0"></path><path d="M473 227l3 1"></path><path d="M10 310l4 -1"></path><path d="M147 393l5 0"></path><path d="M284 476l1 1"></path><path d="M421 559l2 -1"></path><path d="M558 642l3 0"></path><path d="M95 725l4 1"></path><path d="M232 8l5 -1"></path><path d="M369 91l1 0"></path><path d="M506 174l2 1"></path><path d="M43 257l3 -1"></path><path d="M180 340l4 0"></path><path d="M317 423l5 1"></path><path d="M454 506l1 -1"></path><path d="M591 589l2 0"></path><path d="M128 672l3 1"></path><path d="M265 755l4 -1"></path><path d="M402 38l5 0"></path><path d="M539 121l1 1"></path><path d="M76 204l2 -1"></path><path d="M213 287l3 0"></path><path d="M350 370l4 1"></path><path d="M487 453l5 -1"></path><path d="M24 536l1 0"></path><path d="M161 619l2 1"></path><path d="M298 702l3 -1"></path><path d="M435 785l4 0"></path><path d="M572 68l5 1"></path><path d="M109 151l1 -1"></path><path d="M246 234l2 0"></path><path d="M383 317l3 1"></path><path d="M520 400l4 -1"></path><path d="M57 483l5 0"></path><path d="M194 566l1 1"></path><path d="M331 649l2 -1"></path><path d="M468 732l3 0"></path><path d="M5 15l4 1"></path><path d="M142 98l5 -1"></path><path d="M279 181l1 0"></path><path d="M416 264l2 1"></path><path d="M553 347l3 -1"></path><path d="M90 430l4 0"></path><path d="M227 513l5 1"></path><path d="M364 596l1 -1"></path><path d="M501 679l2 0"></path><path d="M38 762l3 1"></path><path d="M175 45l4 -1"></path><path d="M312 128l5 0"></path><path d="M449 211l1 1"></path><path d="M586 294l2 -1"></path><path d="M123 377l3 0"></path><path d="M260 460l4 1"></path><path d="M397 543l5 -1"></path><path d="M534 626l1 0"></path><path d="M71 709l2 1"></path><path d="M208 792l3 -1"></path><path d="M345 75l4 0"></path><path d="M482 158l5 1"></path><path d="M19 241l1 -1"></path><path d="M156 324l2 0"></path><path d="M293 407l3 1"></path><path d="M430 490l4 -1"></path><path d="M567 573l5 0"></path><path d="M104 656l1 1"></path><path d="M241 739l2 -1"></path><path d="M378 22l3 0"></path><path d="M515 105l4 1"></path><path d="M52 188l5 -1"></path><path d="M189 271l1 0"></path><path d="M326 354l2 1"></path><path d="M463 437l3 -1"></path><path d="M0 520l4 0"></path><path d="M137 603l5 1"></path><path d="M274 686l1 -1"></path><path d="M411 769l2 0"></path><path d="M548 52l3 1"></path><path d="M85 135l4 -1"></path><path d="M222 218l5 0"></path><path d="M359 301l1 1"></path><path d="M496 384l2 -1"></path><path d="M33 467l3 0"></path><path d="M170 550l4 1"></path><path d="M307 633l5 -1"></path><path d="M444 716l1 0"></path><path d="M581 799l2 1"></path><path d="M118 82l3 -1"></path><path d="M255 165l4 0"></path><path d="M392 248l5 1"></path><path d="M529 331l1 -1"></path><path d="M66 414l2 0"></path><path d="M203 497l3 1"></path><path d="M340 580l4 -1"></path><path d="M477 663l5 0"></path><path d="M14 746l1 1"></path><path d="M151 29l2 -1"></path><path d="M288 112l3 0"></path><path d="M425 195l4 1"></path><path d="M562 278l5 -1"></path><path d="M99 361l1 0"></path><path d="M236 444l2 1"></path><path d="M373 527l3 -1"></path><path d="M510 610l4 0"></path><path d="M47 693l5 1"></path><path d="M184 776l1 -1"></path><path d="M321 59l2 0"></path><path d="M458 142l3 1"></path><path d="M595 225l4 -1"></path><path d="M132 308l5 0"></path><path d="M269 391l1 1"></path><path d="M406 474l2 -1"></path><path d="M543 557l3 0"></path><path d="M80 640l4 1"></path><path d="M217 723l5 -1"></path><path d="M354 6l1 0"></path><path d="M491 89l2 1"></path><path d="M28 172l3 -1"></path><path d="M165 255l4 0"></path><path d="M302 338l5 1"></path><path d="M439 421l1 -1"></path><path d="M576 504l2 0"></path><path d="M113 587l3 1"></path><path d="M250 670l4 -1"></path><path d="M387 753l5 0"></path><path d="M524 36l1 1"></path><path d="M61 119l2 -1"></path><path d="M198 202l3 0"></path><path d="M335 285l4 1"></path><path d="M472 368l5 -1"></path><path d="M9 451l1 0"></path><path d="M146 534l2 1"></path><path d="M283 617l3 -1"></path><path d="M420 700l4 0"></path><path d="M557 783l5 1"></path><path d="M94 66l1 -1"></path><path d="M231 149l2 0"></path><path d="M368 232l3 1"></path><path d="M505 315l4 -1"></path><path d="M42 398l5 0"></path><path d="M179 481l1 1"></path><path d="M316 564l2 -1"></path><path d="M453 647l3 0"></path><path d="M590 730l4 1"></path><path d="M127 13l5 -1"></path><path d="M264 96l1 0"></path><path d="M401 179l2 1"></path><path d="M538 262l3 -1"></path><path d="M75 345l4 0"></path><path d="M212 428l5 1"></path><path d="M349 511l1 -1"></path><path d="M486 594l2 0"></path><path d="M23 677l3 1"></path><path d="M160 760l4 -1"></path><path d="M297 43l5 0"></path><path d="M434 126l1 1"></path><path d="M571 209l2 -1"></path><path d="M108 292l3 0"></path><path d="M245 375l4 1"></path><path d="M382 458l5 -1"></path><path d="M519 541l1 0"></path><path d="M56 624l2 1"></path><path d="M193 707l3 -1"></path><path d="M330 790l4 0"></path><path d="M467 73l5 1"></path><path d="M4 156l1 -1"></path><path d="M141 239l2 0"></path><path d="M278 322l3 1"></path><path d="M415 405l4 -1"></path><path d="M552 488l5 0"></path><path d="M89 571l1 1"></path><path d="M226 654l2 -1"></path><path d="M363 737l3 0"></path><path d="M500 20l4 1"></path><path d="M37 103l5 -1"></path><path d="M174 186l1 0"></path><path d="M311 269l2 1"></path><path d="M448 352l3 -1"></path><path d="M585 435l4 0"></path><path d="M122 518l5 1"></path><path d="M259 601l1 -1"></path><path d="M396 684l2 0"></path><path d="M533 767l3 1"></path><path d="M70 50l4 -1"></path><path d="M207 133l5 0"></path><path d="M344 216l1 1"></path><path d="M481 299l2 -1"></path><path d="M18 382l3 0"></path><path d="M155 465l4 1"></path><path d="M292 548l5 -1"></path><path d="M429 631l1 0"></path><path d="M566 714l2 1"></path><path d="M103 797l3 -1"></path><path d="M240 80l4 0"></path><path d="M377 163l5 1"></path><path d="M514 246l1 -1"></path><path d="M51 329l2 0"></path><path d="M188 412l3 1"></path><path d="M325 495l4 -1"></path><path d="M462 578l5 0"></path><path d="M599 661l1 1"></path><path d="M136 744l2 -1"></path><path d="M273 27l3 0"></path><path d="M410 110l4 1"></path><path d="M547 193l5 -1"></path><path d="M84 276l1 0"></path><path d="M221 359l2 1"></path><path d="M358 442l3 -1"></path><path d="M495 525l4 0"></path><path d="M32 608l5 1"></path><path d="M169 691l1 -1"></path><path d="M306 774l2 0"></path><path d="M443 57l3 1"></path><path d="M580 140l4 -1"></path><path d="M117 223l5 0"></path><path d="M254 306l1 1"></path><path d="M391 389l2 -1"></path><path d="M528 472l3 0"></path><path d="M65 555l4 1"></path><path d="M202 638l5 -1"></path><path d="M339 721l1 0"></path><path d="M476 4l2 1"></path><path d="M13 87l3 -1"></path><path d="M150 170l4 0"></path><path d="M287 253l5 1"></path><path d="M424 336l1 -1"></path><path d="M561 419l2 0"></path><path d="M98 502l3 1"></path><path d="M235 585l4 -1"></path><path d="M372 668l5 0"></path><path d="M509 751l1 1"></path><path d="M46 34l2 -1"></path><path d="M183 117l3 0"></path><path d="M320 200l4 1"></path><path d="M457 283l5 -1"></path><path d="M594 366l1 0"></path><path d="M131 449l2 1"></path><path d="M268 532l3 -1"></path><path d="M405 615l4 0"></path><path d="M542 698l5 1"></path><path d="M79 781l1 -1"></path><path d="M216 64l2 0"></path><path d="M353 147l3 1"></path><path d="M490 230l4 -1"></path><path d="M27 313l5 0"></path><path d="M164 396l1 1"></path><path d="M301 479l2 -1"></path><path d="M438 562l3 0"></path><path d="M575 645l4 1"></path><path d="M112 728l5 -1"></path><path d="M249 11l1 0"></path><path d="M386 94l2 1"></path><path d="M523 177l3 -1"></path><path d="M60 260l4 0"></path><path d="M197 343l5 1"></path><path d="M334 426l1 -1"></path><path d="M471 509l2 0"></path><path d="M8 592l3 1"></path><path d="M145 675l4 -1"></path><path d="M282 758l5 0"></path><path d="M419 41l1 1"></path><path d="M556 124l2 -1"></path><path d="M93 207l3 0"></path><path d="M230 290l4 1"></path><path d="M367 373l5 -1"></path><path d="M504 456l1 0"></path><path d="M41 539l2 1"></path><path d="M178 622l3 -1"></path><path d="M315 705l4 0"></path><path d="M452 788l5 1"></path><path d="M589 71l1 -1"></path><path d="M126 154l2 0"></path><path d="M263 237l3 1"></path><path d="M400 320l4 -1"></path><path d="M537 403l5 0"></path><path d="M74 486l1 1"></path><path d="M211 569l2 -1"></path><path d="M348 652l3 0"></path><path d="M485 735l4 1"></path><path d="M22 18l5 -1"></path><path d="M159 101l1 0"></path><path d="M296 184l2 1"></path><path d="M433 267l3 -1"></path><path d="M570 350l4 0"></path><path d="M107 433l5 1"></path><path d="M244 516l1 -1"></path><path d="M381 599l2 0"></path><path d="M518 682l3 1"></path><path d="M55 765l4 -1"></path><path d="M192 48l5 0"></path><path d="M329 131l1 1"></path><path d="M466 214l2 -1"></path><path d="M3 297l3 0"></path><path d="M140 380l4 1"></path><path d="M277 463l5 -1"></path><path d="M414 546l1 0"></path><path d="M551 629l2 1"></path><path d="M88 712l3 -1"></path><path d="M225 795l4 0"></path><path d="M362 78l5 1"></path><path d="M499 161l1 -1"></path><path d="M36 244l2 0"></path><path d="M173 327l3 1"></path><path d="M310 410l4 -1"></path><path d="M447 493l5 0"></path><path d="M584 576l1 1"></path><path d="M121 659l2 -1"></path><path d="M258 742l3 0"></path><path d="M395 25l4 1"></path><path d="M532 108l5 -1"></path><path d="M69 191l1 0"></path><path d="M206 274l2 1"></path><path d="M343 357l3 -1"></path><path d="M480 440l4 0"></path><path d="M17 523l5 1"></path><path d="M154 606l1 -1"></path><path d="M291 689l2 0"></path><path d="M428 772l3 1"></path><path d="M565 55l4 -1"></path><path d="M102 138l5 0"></path><path d="M239 221l1 1"></path><path d="M376 304l2 -1"></path><path d="M513 387l3 0"></path><path d="M50 470l4 1"></path><path d="M187 553l5 -1"></path><path d="M324 636l1 0"></path><path d="M461 719l2 1"></path><path d="M598 2l3 -1"></path><path d="M135 85l4 0"></path><path d="M272 168l5 1"></path><path d="M409 251l1 -1"></path><path d="M546 334l2 0"></path><path d="M83 417l3 1"></path><path d="M220 500l4 -1"></path><path d="M357 583l5 0"></path><path d="M494 666l1 1"></path><path d="M31 749l2 -1"></path><path d="M168 32l3 0"></path><path d="M305 115l4 1"></path><path d="M442 198l5 -1"></path><path d="M579 281l1 0"></path><path d="M116 364l2 1"></path><path d="M253 447l3 -1"></path><path d="M390 530l4 0"></path><path d="M527 613l5 1"></path><path d="M64 696l1 -1"></path><path d="M201 779l2 0"></path><path d="M338 62l3 1"></path><path d="M475 145l4 -1"></path><path d="M12 228l5 0"></path><path d="M149 311l1 1"></path><path d="M286 394l2 -1"></path><path d="M423 477l3 0"></path><path d="M560 560l4 1"></path><path d="M97 643l5 -1"></path><path d="M234 726l1 0"></path><path d="M371 9l2 1"></path><path d="M508 92l3 -1"></path><path d="M45 175l4 0"></path><path d="M182 258l5 1"></path><path d="M319 341l1 -1"></path><path d="M456 424l2 0"></path><path d="M593 507l3 1"></path><path d="M130 590l4 -1"></path><path d="M267 673l5 0"></path><path d="M404 756l1 1"></path><path d="M541 39l2 -1"></path><path d="M78 122l3 0"></path><path d="M215 205l4 1"></path><path d="M352 288l5 -1"></path><path d="M489 371l1 0"></path><path d="M26 454l2 1"></path><path d="M163 537l3 -1"></path><path d="M300 620l4 0"></path><path d="M437 703l5 1"></path><path d="M574 786l1 -1"></path><path d="M111 69l2 0"></path><path d="M248 152l3 1"></path><path d="M385 235l4 -1"></path><path d="M522 318l5 0"></path><path d="M59 401l1 1"></path><path d="M196 484l2 -1"></path><path d="M333 567l3 0"></path><path d="M470 650l4 1"></path><path d="M7 733l5 -1"></path><path d="M144 16l1 0"></path><path d="M281 99l2 1"></path><path d="M418 182l3 -1"></path><path d="M555 265l4 0"></path><path d="M92 348l5 1"></path><path d="M229 431l1 -1"></path><path d="M366 514l2 0"></path><path d="M503 597l3 1"></path><path d="M40 680l4 -1"></path><path d="M177 763l5 0"></path><path d="M314 46l1 1"></path><path d="M451 129l2 -1"></path><path d="M588 212l3 0"></path><path d="M125 295l4 1"></path><path d="M262 378l5 -1"></path><path d="M399 461l1 0"></path><path d="M536 544l2 1"></path><path d="M73 627l3 -1"></path><path d="M210 710l4 0"></path><path d="M347 793l5 1"></path><path d="M484 76l1 -1"></path><path d="M21 159l2 0"></path><path d="M158 242l3 1"></path><path d="M295 325l4 -1"></path><path d="M432 408l5 0"></path><path d="M569 491l1 1"></path><path d="M106 574l2 -1"></path><path d="M243 657l3 0"></path><path d="M380 740l4 1"></path><path d="M517 23l5 -1"></path><path d="M54 106l1 0"></path><path d="M191 189l2 1"></path><path d="M328 272l3 -1"></path><path d="M465 355l4 0"></path><path d="M2 438l5 1"></path><path d="M139 521l1 -1"></path><path d="M276 604l2 0"></path><path d="M413 687l3 1"></path><path d="M550 770l4 -1"></path><path d="M87 53l5 0"></path><path d="M224 136l1 1"></path><path d="M361 219l2 -1"></path><path d="M498 302l3 0"></path><path d="M35 385l4 1"></path><path d="M172 468l5 -1"></path><path d="M309 551l1 0"></path><path d="M446 634l2 1"></path><path d="M583 717l3 -1"></path><path d="M120 0l4 0"></path><path d="M257 83l5 1"></path><path d="M394 166l1 -1"></path><path d="M531 249l2 0"></path><path d="M68 332l3 1"></path><path d="M205 415l4 -1"></path><path d="M342 498l5 0"></path><path d="M479 581l1 1"></path><path d="M16 664l2 -1"></path><path d="M153 747l3 0"></path><path d="M290 30l4 1"></path><path d="M427 113l5 -1"></path><path d="M564 196l1 0"></path><path d="M101 279l2 1"></path><path d="M238 362l3 -1"></path><path d="M375 445l4 0"></path><path d="M512 528l5 1"></path><path d="M49 611l1 -1"></path><path d="M186 694l2 0"></path><path d="M323 777l3 1"></path><path d="M460 60l4 -1"></path><path d="M597 143l5 0"></path><path d="M134 226l1 1"></path><path d="M271 309l2 -1"></path><path d="M408 392l3 0"></path><path d="M545 475l4 1"></path><path d="M82 558l5 -1"></path></g><g fill="none" stroke="#8B6C40" stroke-width=".5" opacity=".12"><path d="M20 181c138 29 303-22 563 9M15 472c204-18 372 22 573 3M64 16c15 203-10 479 4 764"></path></g><path d="M13 12L87 9 142 13 204 8 280 11 358 7 414 12 487 8 576 12 589 31 587 122 592 193 588 277 592 348 587 431 591 511 587 598 591 685 587 773 575 787 501 790 422 786 351 792 279 788 195 791 124 786 41 791 12 780 9 705 13 626 8 548 12 465 8 381 12 298 8 213 13 137 8 58Z" fill="none" stroke="#75471D" stroke-width="2" opacity=".23"></path></g></svg>