<svg width="1400" height="196" viewBox="0 0 1400 196" xmlns="http://www.w3.org/2000/svg"><defs><linearGradient id="court-wood" x2="0" y2="1"><stop stop-color="#45554A"></stop><stop offset=".45" stop-color="#33483D"></stop><stop offset="1" stop-color="#263B32"></stop></linearGradient><linearGradient id="court-gold"><stop stop-color="#8D7241"></stop><stop offset=".3" stop-color="#E8D4A0"></stop><stop offset=".7" stop-color="#BE9D5C"></stop><stop offset="1" stop-color="#806037"></stop></linearGradient></defs><rect width="1400" height="196" fill="url(#court-wood)"></rect><g stroke="#B7A373" fill="none" opacity=".08"><path d="M0 49c190-65 219 33 370 0s299-58 453 0 409-81 577 0M0 126c210-65 253 34 414 0s289-55 491 0 382-72 495 0M0 160c127-67 335 27 439 0s219-55 420 0 368-79 541 0"></path></g><g fill="none" stroke="url(#court-gold)"><path d="M0 6h1400M0 12h1400M0 184h1400M0 190h1400" stroke-width="1.5"></path><path d="M0 19h1400M0 177h1400" opacity=".3"></path></g><g fill="none" stroke="#C9AE72"><path d="M20 26v144m8-144v144M39 24c71 0 52 38 14 35-23-2-29-16-13-21 21-5 23 14 13 15M39 172c71 0 52-38 14-35-23 2-29 16-13 21 21 5 23-14 13-15" opacity=".6"></path><path d="M37 96c40-54 60 45 91 0-31 21-14-33-57-22m-34 22c40 54 60-45 91 0-31-21-14 33-57 22" opacity=".2"></path><path d="m22 87 7 10-7 10-7-10z" fill="#BDA063" stroke-width=".7"></path><circle cx="28" cy="26" r="3" fill="#D4BB80"></circle><circle cx="28" cy="170" r="3" fill="#D4BB80"></circle></g><g transform="translate(1400 0) scale(-1 1)" fill="none" stroke="#C9AE72"><path d="M20 26v144m8-144v144M39 24c71 0 52 38 14 35-23-2-29-16-13-21 21-5 23 14 13 15M39 172c71 0 52-38 14-35-23 2-29 16-13 21 21 5 23-14 13-15" opacity=".6"></path><path d="M37 96c40-54 60 45 91 0-31 21-14-33-57-22m-34 22c40 54 60-45 91 0-31-21-14 33-57 22" opacity=".2"></path><path d="m22 87 7 10-7 10-7-10z" fill="#BDA063" stroke-width=".7"></path><circle cx="28" cy="26" r="3" fill="#D4BB80"></circle><circle cx="28" cy="170" r="3" fill="#D4BB80"></circle></g><g stroke="#DDC797" fill="none" opacity=".26"><path d="M483 16c91 0 78 35 177 15m-177 150c91 0 78-35 177-15M917 16c-91 0-78 35-177 15m177 150c-91 0-78-35-177-15"></path><path d="m682 17-4 13 10-3 12 9 12-9 10 3-4-13m-36 155-4-13 10 3 12-9 12 9 10-3-4 13"></path></g><g fill="#E8D7AF" opacity=".18"><path d="M130 26l1 2 2 1-2 1-1 2-1-2-2-1 2-1z"></path><path d="M207 49l1 2 2 1-2 1-1 2-1-2-2-1 2-1z"></path><path d="M284 72l1 2 2 1-2 1-1 2-1-2-2-1 2-1z"></path><path d="M361 95l1 2 2 1-2 1-1 2-1-2-2-1 2-1z"></path><path d="M438 118l1 2 2 1-2 1-1 2-1-2-2-1 2-1z"></path><path d="M515 141l1 2 2 1-2 1-1 2-1-2-2-1 2-1z"></path><path d="M592 27l1 2 2 1-2 1-1 2-1-2-2-1 2-1z"></path><path d="M669 50l1 2 2 1-2 1-1 2-1-2-2-1 2-1z"></path><path d="M746 73l1 2 2 1-2 1-1 2-1-2-2-1 2-1z"></path><path d="M823 96l1 2 2 1-2 1-1 2-1-2-2-1 2-1z"></path><path d="M900 119l1 2 2 1-2 1-1 2-1-2-2-1 2-1z"></path><path d="M977 142l1 2 2 1-2 1-1 2-1-2-2-1 2-1z"></path><path d="M1054 28l1 2 2 1-2 1-1 2-1-2-2-1 2-1z"></path><path d="M1131 51l1 2 2 1-2 1-1 2-1-2-2-1 2-1z"></path><path d="M1208 74l1 2 2 1-2 1-1 2-1-2-2-1 2-1z"></path><path d="M1285 97l1 2 2 1-2 1-1 2-1-2-2-1 2-1z"></path></g></svg>